<svg width="212" height="176" viewBox="0 0 212 176" fill="none" xmlns="http://www.w3.org/2000/svg">
<path d="M3.00004 123.501C3.43899 98.5928 38.5 70.5008 38.5 70.5008C38.5 70.5008 69 -0.999765 81.5 3.50076C94.0001 8.00129 96 45.5008 96 45.5008C112.161 41.8858 121.665 42.4004 139 45.5008C139 45.5008 175 -2.99977 182.5 6.00076C190 15.0013 182.5 54.0008 182.5 54.0008C182.5 54.0008 203.868 77.5905 207.5 96.5008C217.44 148.251 148.688 173.445 96 172.501C54.9551 171.766 2.27671 164.546 3.00004 123.501Z" fill="black" stroke="black" stroke-width="6"/>
<path d="M55.7771 92.7043C56.1607 92.7043 57.9773 92.0784 60.1259 91.2665C61.1079 90.8954 63.2756 90.287 64.8715 89.8597C65.4094 89.7157 66.0301 89.4735 66.5759 89.3328C67.4741 89.1014 69.0101 88.8054 70.7625 88.7533C71.612 88.728 72.3758 88.5968 74.6824 88.5431C76.9891 88.4893 80.8142 88.4893 82.8716 88.5241C85.4295 88.5673 86.0513 89.0836 86.8247 89.6463C87.4915 90.1314 88.0892 90.5252 88.5292 90.894C89.1682 91.4297 89.8111 91.2986 90.2331 91.4567C90.4608 91.542 90.6551 91.6853 90.7958 91.8076C91.194 92.1535 90.2368 92.8076 89.7099 93.3171C89.2315 93.7797 88.7615 94.0721 88.0771 94.3893C87.5909 94.6146 87.1114 94.8455 86.4443 95.0742C85.178 95.5083 84.1967 95.6548 83.4232 95.8297C82.4231 96.0559 80.9996 96.3208 80.1398 96.5147C79.2448 96.7165 78.1229 96.8476 76.2441 96.9367C75.41 96.9762 74.7825 97.0942 74.0623 97.1474C73.9021 97.1593 73.7983 97.1996 72.6666 97.2175C71.5349 97.2354 69.3789 97.2354 68.077 97.2007C65.8185 97.1403 65.0543 96.9551 64.4379 96.8318C63.5204 96.6484 62.8056 96.4641 62.1897 96.1127C61.6416 95.7999 61.1196 95.5157 60.5385 95.3218C60.0681 95.1649 59.6085 94.953 59.2208 94.62C58.7838 94.2448 58.3082 94.11 57.8862 93.9693C57.4526 93.8248 57.0437 93.5831 56.5342 93.2328C56.2786 93.057 56.0595 92.9151 55.7966 92.8629C55.6648 92.8368 55.5685 92.7064 57.4968 92.5657C59.4252 92.4251 63.3894 92.2512 65.9532 92.0921C68.5169 91.933 69.5601 91.7939 70.2366 91.7222C71.7542 91.5615 72.6687 91.4398 73.9316 91.2649C74.4896 91.1876 75.2314 91.1247 76.1429 90.9667C76.9058 90.8344 77.6561 90.8434 79.2093 90.738C80.3779 90.6587 82.3273 90.7022 83.4174 90.737C84.6851 90.7774 85.0692 90.9129 85.4375 90.9999C85.7986 91.0851 85.8785 91.5441 85.9839 91.9282C86.0585 92.2002 86.0197 92.6601 85.8632 92.9625C85.174 94.2945 82.8648 94.0384 81.2557 94.1611C80.274 94.236 78.9511 94.2491 78.1487 94.2844C77.3463 94.3197 77.1029 94.3545 75.6039 94.3724C74.105 94.3903 71.3578 94.3903 69.8731 94.3729C67.8955 94.3498 66.7087 94.0763 65.4405 93.934C64.433 93.821 62.9152 93.5473 61.843 93.4951C61.5318 93.48 61.7097 93.3387 61.9732 93.2328C62.2366 93.1269 62.5843 93.0225 64.8151 92.6906C67.0459 92.3587 71.1492 91.8023 73.4021 91.4809C75.9376 91.1192 76.5328 91.0183 77.1982 90.9488C78.8093 90.7804 80.0449 90.5273 80.5218 90.5088C80.9741 90.4913 78.9659 91.0499 77.5781 91.4909C76.5879 91.8056 75.3136 92.071 74.1381 92.2638C72.9154 92.4644 72.0786 92.5631 71.0997 92.6685C70.4711 92.7361 69.5644 92.7043 72.1065 92.7217C74.6487 92.7391 80.6645 92.7739 83.6071 92.8265C86.5497 92.8792 86.2368 92.9488 84.4759 92.9846C82.7151 93.0204 79.516 93.0204 77.7288 93.003C75.6629 92.9829 75.0639 92.9151 74.7114 92.8281C73.7506 92.5912 76.7762 91.8276 78.7061 91.6163C80.2367 91.4488 81.4844 91.2649 83.7278 91.1943C84.8774 91.1581 85.908 90.9129 86.6667 90.738C87.6804 90.5043 88.4033 90.5968 88.8643 90.8244C89.1946 90.9875 88.1293 90.3523 87.6899 90.0884C87.5666 90.0352 87.4275 90.0004 87.3211 89.9303C87.2146 89.8602 87.1451 89.7559 86.8627 89.6484" stroke="white" stroke-width="3" stroke-linecap="round"/>
<path d="M72.0049 86.5925C72.0397 86.5925 72.0744 86.5925 72.0923 88.1052C72.1103 89.6179 72.1103 92.6432 72.1276 94.2538C72.1485 96.1844 72.3906 96.7401 72.7409 97.2512C73.103 97.7794 73.4085 98.1817 73.8121 98.5863C74.0284 98.8032 74.3568 98.816 74.6198 98.7639C75.1567 98.6573 75.1998 97.6611 75.3063 96.7122C75.4147 95.7452 75.7267 94.8518 75.8331 94.1116C75.9123 93.5612 76.0787 92.953 76.1319 92.1279C76.1808 91.3688 76.2894 90.5989 76.2905 89.3023C76.291 88.6652 75.87 88.2806 75.5539 87.7364C75.1301 87.0067 74.5718 86.4893 74.2014 86.102C74.0497 85.9434 73.7973 85.9255 73.6045 85.9424C72.418 86.0461 73.5138 89.1531 73.7077 89.8739C73.9194 90.6607 74.1103 91.4356 74.3052 92.3655C74.5447 93.5078 74.184 94.3544 73.9037 94.5294C73.3301 94.8874 72.8858 95.2312 72.4627 95.4783C72.3765 95.5286 72.3568 95.6527 72.3911 95.689C72.7067 95.5505 72.9522 95.3039 73.145 95.199C73.2336 95.129 73.3031 95.0246 73.5855 94.7064" stroke="black" stroke-width="3" stroke-linecap="round"/>
<path d="M87.376 91.7598C87.4385 91.7805 87.5639 91.9885 87.8359 92.4339C87.8995 92.5655 87.9413 92.629 87.9988 92.676C88.0252 92.7022 88.046 92.7333 88.1302 92.7968" stroke="white" stroke-width="3" stroke-linecap="round"/>
<path d="M67.0432 96.0651C66.9389 96.0651 66.4398 95.8992 66.0855 95.8033C65.8276 95.7335 65.3085 95.688 64.9958 95.6515C64.8437 95.5833 64.6561 95.5 64.3313 95.3846C64.2573 95.3633 64.2055 95.353 64.1206 95.3423" stroke="white" stroke-width="3" stroke-linecap="round"/>
<path d="M162.076 91.2374C161.694 91.2708 159.829 90.8056 157.618 90.184C156.608 89.8999 154.395 89.4828 152.768 89.1962C152.22 89.0996 151.58 88.9125 151.024 88.8199C150.109 88.6676 148.553 88.5067 146.803 88.6074C145.955 88.6563 145.182 88.5922 142.88 88.7397C140.577 88.8872 136.767 89.2205 134.72 89.4345C132.176 89.7005 131.601 90.269 130.88 90.897C130.258 91.4383 129.697 91.8827 129.291 92.2884C128.701 92.8778 128.049 92.8033 127.642 92.9975C127.423 93.1023 127.242 93.2621 127.112 93.3961C126.746 93.7755 127.756 94.3436 128.326 94.8052C128.842 95.2244 129.336 95.4747 130.046 95.731C130.55 95.9131 131.047 96.1014 131.732 96.271C133.031 96.5931 134.022 96.6536 134.807 96.7604C135.823 96.8986 137.264 97.0383 138.138 97.1566C139.047 97.2796 140.176 97.3125 142.056 97.2374C142.89 97.2041 143.525 97.267 144.247 97.2572C144.408 97.2551 144.515 97.2862 145.644 97.2054C146.773 97.1246 148.921 96.9367 150.215 96.7886C152.459 96.5317 153.204 96.2806 153.808 96.104C154.706 95.8413 155.402 95.5954 155.985 95.1916C156.503 94.8323 156.999 94.5037 157.561 94.2599C158.016 94.0626 158.455 93.8114 158.812 93.4459C159.215 93.034 159.677 92.8583 160.085 92.6814C160.504 92.4996 160.891 92.2232 161.368 91.8298C161.607 91.6324 161.813 91.4719 162.07 91.397C162.199 91.3595 162.284 91.2213 160.351 91.2492C158.417 91.2771 154.453 91.4494 151.885 91.5144C149.317 91.5793 148.266 91.5317 147.586 91.5192C146.06 91.4914 145.138 91.4499 143.865 91.3857C143.302 91.3573 142.558 91.3594 141.636 91.2813C140.865 91.216 140.118 91.2904 138.561 91.3208C137.39 91.3437 135.452 91.5569 134.369 91.6865C133.11 91.8373 132.739 92.0058 132.38 92.1245C132.027 92.2409 131.988 92.7051 131.916 93.0969C131.866 93.3744 131.944 93.8291 132.127 94.1167C132.929 95.3836 135.208 94.9272 136.821 94.9092C137.806 94.8983 139.125 94.796 139.927 94.7613C140.73 94.7265 140.975 94.7399 142.47 94.6271C143.965 94.5143 146.701 94.2749 148.179 94.1282C150.147 93.9327 151.305 93.5569 152.556 93.3046C153.55 93.1042 155.038 92.6993 156.102 92.5539C156.411 92.5117 156.221 92.3864 155.949 92.3038C155.678 92.2213 155.322 92.1477 153.071 92.0114C150.82 91.8752 146.684 91.6786 144.411 91.5547C141.854 91.4154 141.252 91.3668 140.583 91.3555C138.964 91.3281 137.711 91.1837 137.234 91.2069C136.782 91.2289 138.831 91.6103 140.252 91.9287C141.266 92.1558 142.558 92.3092 143.746 92.3988C144.982 92.4921 145.824 92.5175 146.808 92.5371C147.441 92.5497 148.341 92.439 145.81 92.6779C143.279 92.9168 137.289 93.4757 134.362 93.7847C131.436 94.0936 131.753 94.1356 133.511 94.0179C135.268 93.9001 138.455 93.6213 140.234 93.4482C142.29 93.2481 142.881 93.1283 143.224 93.0109C144.161 92.6911 141.08 92.1942 139.139 92.1519C137.6 92.1184 136.341 92.044 134.1 92.1691C132.952 92.2333 131.903 92.0789 131.132 91.9708C130.102 91.8263 129.39 91.9814 128.951 92.2484C128.636 92.4396 129.642 91.714 130.056 91.4128C130.175 91.349 130.31 91.3022 130.41 91.2232C130.51 91.1441 130.57 91.0341 130.842 90.9024" stroke="white" stroke-width="3" stroke-linecap="round"/>
<path d="M145.377 86.5632C145.343 86.5662 145.308 86.5693 145.422 88.0777C145.536 89.5862 145.8 92.6 145.923 94.206C146.07 96.1311 145.878 96.7058 145.573 97.2454C145.258 97.8032 144.989 98.2305 144.622 98.6688C144.426 98.9037 144.1 98.9451 143.833 98.9161C143.289 98.8568 143.159 97.8681 142.971 96.9321C142.778 95.9782 142.39 95.1154 142.219 94.3873C142.092 93.8459 141.873 93.2545 141.749 92.4372C141.634 91.6852 141.458 90.9277 141.344 89.6361C141.288 89.0015 141.674 88.5817 141.942 88.012C142.3 87.2482 142.811 86.684 143.146 86.266C143.284 86.0947 143.534 86.0549 143.727 86.0549C144.918 86.0549 144.097 89.2456 143.967 89.9805C143.825 90.7827 143.702 91.5713 143.589 92.5147C143.45 93.6735 143.883 94.4855 144.178 94.6353C144.78 94.942 145.253 95.2457 145.696 95.455C145.786 95.4977 145.816 95.6195 145.786 95.6587C145.459 95.5482 145.193 95.3239 144.992 95.2363C144.897 95.1742 144.819 95.0763 144.51 94.7839" stroke="black" stroke-width="3" stroke-linecap="round"/>
<path d="M130.515 93.0505C130.455 93.0766 130.348 93.2948 130.116 93.7621C130.064 93.8989 130.028 93.9657 129.974 94.0176C129.95 94.046 129.933 94.0788 129.854 94.1494" stroke="white" stroke-width="3" stroke-linecap="round"/>
<path d="M151.146 95.5673C151.25 95.5582 151.732 95.3494 152.077 95.223C152.328 95.1311 152.841 95.0404 153.149 94.9769C153.295 94.8957 153.474 94.7964 153.788 94.653C153.86 94.6254 153.911 94.6106 153.994 94.5925" stroke="white" stroke-width="3" stroke-linecap="round"/>
</svg>
