<svg width="211" height="176" viewBox="0 0 211 176" fill="none" xmlns="http://www.w3.org/2000/svg">
<path d="M3.03978 112.83C4.2334 82.9847 54.0398 55.8302 54.0398 55.8302C54.0398 55.8302 88.5398 -12.6695 97.0398 6.33016C105.54 25.3298 105.54 49.8302 105.54 49.8302C119.476 47.8551 127.015 47.9444 140.04 49.8302C140.04 49.8302 161.04 18.8298 182.04 14.3302C203.04 9.83048 189.54 55.8302 189.54 55.8302C189.54 55.8302 218.54 77.3302 202.54 119.83C186.54 162.33 135.693 177.833 87.0398 170.33C47.7507 164.271 1.45117 152.552 3.03978 112.83Z" fill="white" stroke="black" stroke-width="6"/>
<path d="M103.107 114.036C102.823 114.376 102.481 115.284 102.366 117.22C102.081 118.532 101.968 119.847 101.797 121.175C101.739 122.334 101.739 124.478 101.397 126.858" stroke="black" stroke-width="4" stroke-linecap="round"/>
<path d="M85.6675 127.884H116.271" stroke="black" stroke-width="4" stroke-linecap="round"/>
<path d="M168.285 88.6719C168.198 88.3637 167.844 87.6568 167.401 87.0795C167.015 86.5761 166.606 85.7967 166.249 85.2413C165.936 84.753 165.498 84.3777 164.966 84.0229C164.413 83.6541 163.904 83.2696 163.371 82.96C162.787 82.6198 161.65 82.2518 160.583 81.919C159.785 81.6703 159.078 81.4094 158.037 81.1218C156.747 80.7654 155.49 80.4794 154.846 80.1917C154.203 79.9046 153.54 79.9479 152.81 79.6822C151.745 79.2945 150.707 79.4164 148.122 79.4151C146.599 79.4143 145.483 80.0781 143.866 80.5651C142.857 80.8689 141.675 81.3616 140.696 81.8499C140.092 82.1517 139.456 82.382 138.593 82.8019C137.922 83.1283 137.155 83.5327 136.577 83.9977C135.704 84.6997 134.63 85.4353 134.008 86.1229C133.512 86.6707 133.166 87.2954 132.26 88.3139C131.664 88.9834 130.602 89.9501 130.131 90.6629C129.777 91.2006 129.754 93.3488 129.886 94.6489C129.945 95.2223 130.461 95.7112 130.948 96.1331C131.461 96.5777 132.01 96.7316 133.005 97.0193C133.767 97.2394 134.665 97.3508 135.729 97.7055C136.77 98.0525 138.029 98.148 139.426 98.4589C140.667 98.735 142.19 98.7698 144.531 98.8801C145.98 98.9483 148.656 98.9027 150.143 98.8807C152.653 98.8437 154.417 98.4164 155.703 98.3274C156.544 98.2692 157.473 97.8849 158.384 97.6192C159.476 97.3005 160.486 97.2206 161.417 96.911C162.54 96.5376 163.367 96.4685 163.899 96.246C164.416 96.0296 164.961 95.8042 165.383 95.3611C165.744 94.9818 165.982 94.5207 166.379 94.2092C166.834 93.8532 167.044 93.1921 167.376 92.6599C167.75 92.0597 168.02 91.51 168.262 90.9327C168.329 90.7991 168.373 90.6676 168.396 90.4683C168.418 90.269 168.418 90.0059 168.285 89.7349" stroke="black" stroke-width="4" stroke-linecap="round"/>
<path d="M149.82 87.1933C149.82 87.1782 149.82 87.163 149.82 86.2931C149.82 85.4232 149.82 83.6988 149.828 82.7879C149.835 81.8769 149.851 81.8315 149.866 81.6931" stroke="black" stroke-width="4" stroke-linecap="round"/>
<path d="M149.04 82.3298C149.04 82.345 149.04 82.3601 149.04 82.988C149.04 83.616 149.04 84.8562 149.055 85.5557C149.076 86.5489 149.161 86.7291 149.23 86.9278C149.329 87.2135 149.375 87.5229 149.452 87.7377C149.521 87.9308 149.666 88.1041 149.826 88.2572C150.034 88.4564 150.185 88.5019 150.276 88.5402C150.32 88.5583 150.368 88.5331 150.399 88.5026C150.53 88.373 150.567 88.0308 150.636 87.6712C150.745 87.107 150.72 86.884 150.773 86.1172C150.812 85.5652 150.781 84.5354 150.789 83.9602C150.796 83.385 150.812 83.2942 150.819 83.1945C150.827 83.0948 150.827 82.9889 150.781 82.834" stroke="black" stroke-width="4" stroke-linecap="round"/>
<path d="M57.1613 81.6038C57.249 81.2956 57.6024 80.5887 58.0455 80.0114C58.4319 79.508 58.8407 78.7286 59.1975 78.1732C59.5111 77.6849 59.9489 77.3096 60.481 76.9548C61.0342 76.586 61.5433 76.2015 62.0754 75.8919C62.6601 75.5517 63.7967 75.1837 64.8643 74.8509C65.6619 74.6022 66.369 74.3413 67.41 74.0537C68.6997 73.6973 69.9564 73.4113 70.6008 73.1236C71.244 72.8365 71.9068 72.8798 72.637 72.6141C73.7021 72.2264 74.7396 72.3483 77.3245 72.347C78.8477 72.3462 79.9639 73.01 81.5809 73.497C82.5897 73.8008 83.7718 74.2935 84.7504 74.7818C85.3552 75.0835 85.9907 75.3139 86.8537 75.7338C87.5247 76.0602 88.292 76.4645 88.8699 76.9296C89.7424 77.6316 90.8164 78.3672 91.4389 79.0548C91.9349 79.6026 92.2806 80.2273 93.1868 81.2457C93.7825 81.9152 94.8449 82.882 95.3153 83.5948C95.67 84.1324 95.6926 86.2807 95.5604 87.5808C95.5021 88.1542 94.9858 88.6431 94.4988 89.0649C93.9856 89.5096 93.4366 89.6635 92.4414 89.9512C91.6798 90.1713 90.7819 90.2827 89.7176 90.6374C88.6767 90.9844 87.4177 91.0799 86.0206 91.3908C84.7798 91.6669 83.2563 91.7017 80.9159 91.812C79.4671 91.8802 76.791 91.8346 75.3036 91.8126C72.7934 91.7756 71.0299 91.3483 69.7438 91.2592C68.9029 91.201 67.974 90.8168 67.0632 90.5511C65.9709 90.2324 64.9606 90.1525 64.0299 89.8429C62.9072 89.4695 62.08 89.4004 61.5479 89.1779C61.0304 88.9615 60.4856 88.7361 60.0638 88.293C59.7027 87.9137 59.4652 87.4526 59.0673 87.141C58.6127 86.7851 58.4023 86.1239 58.0708 85.5918C57.6969 84.9916 57.427 84.4419 57.1846 83.8645C57.1175 83.731 57.0736 83.5995 57.051 83.4002C57.0284 83.2009 57.0284 82.9378 57.1613 82.6668" stroke="black" stroke-width="4" stroke-linecap="round"/>
<path d="M75.6265 80.1252C75.6265 80.11 75.6265 80.0949 75.6265 79.225C75.6265 78.355 75.6265 76.6307 75.6189 75.7198C75.6113 74.8088 75.5962 74.7634 75.5806 74.625" stroke="black" stroke-width="4" stroke-linecap="round"/>
<path d="M76.4072 75.2617C76.4072 75.2768 76.4072 75.292 76.4072 75.9199C76.4072 76.5478 76.4072 77.7881 76.3921 78.4876C76.3706 79.4808 76.2853 79.6609 76.2166 79.8596C76.1177 80.1454 76.0717 80.4548 75.9949 80.6695C75.9259 80.8626 75.7811 81.036 75.6212 81.1891C75.413 81.3883 75.2618 81.4338 75.1704 81.4721C75.1272 81.4902 75.0789 81.465 75.048 81.4345C74.9164 81.3049 74.88 80.9626 74.8108 80.6031C74.7022 80.0389 74.7269 79.8159 74.6733 79.049C74.6347 78.4971 74.6655 77.4673 74.6579 76.8921C74.6504 76.3168 74.6353 76.2261 74.6275 76.1264C74.6197 76.0267 74.6197 75.9208 74.6655 75.7659" stroke="black" stroke-width="4" stroke-linecap="round"/>
</svg>
