<svg width="138" height="121" viewBox="0 0 138 121" fill="none" xmlns="http://www.w3.org/2000/svg">
<path d="M40.0846 8.81808L37.2886 17.206H17.206C7.71582 17.206 0 24.9218 0 34.412V103.236C0 112.726 7.71582 120.442 17.206 120.442H120.442C129.932 120.442 137.648 112.726 137.648 103.236V34.412C137.648 24.9218 129.932 17.206 120.442 17.206H100.359L97.5634 8.81808C95.8159 3.54874 90.8961 0 85.331 0H52.317C46.7519 0 41.8321 3.54874 40.0846 8.81808ZM68.824 43.015C83.0727 43.015 94.633 54.5753 94.633 68.824C94.633 83.0727 83.0727 94.633 68.824 94.633C54.5753 94.633 43.015 83.0727 43.015 68.824C43.015 54.5753 54.5753 43.015 68.824 43.015Z" fill="#D2D5DF"/>
</svg>
