<svg width="138" height="138" viewBox="0 0 138 138" fill="none" xmlns="http://www.w3.org/2000/svg">
<path d="M0 47.4655C0 36.9934 7.71593 28.4793 17.2062 28.4793C17.3407 28.4793 17.502 28.4793 17.6364 28.4793C19.6259 17.6512 28.3097 9.4931 38.7141 9.4931C42.7468 9.4931 46.5106 10.7094 49.7099 12.8157C53.2856 5.19154 60.4907 0 68.825 0C77.1593 0 84.3644 5.22121 87.9401 12.8157C91.1662 10.7094 94.9301 9.4931 98.9359 9.4931C109.34 9.4931 118.024 17.6512 120.014 28.4793C120.148 28.4793 120.309 28.4793 120.444 28.4793C129.934 28.4793 137.65 36.9934 137.65 47.4655C137.65 50.9364 136.817 54.17 135.338 56.9586H2.31209C0.833427 54.17 0 50.9364 0 47.4655ZM0 79.3267C0 74.8472 3.30683 71.1983 7.36643 71.1983H130.257C134.316 71.1983 137.623 74.8472 137.623 79.3267C137.623 100.241 125.686 118.1 108.937 125.042L108.48 129.344C107.942 134.09 104.286 137.65 99.9307 137.65H37.6924C33.364 137.65 29.6808 134.09 29.1431 129.344L28.6592 125.072C11.9368 118.1 0 100.241 0 79.3267Z" fill="#F4BA5C"/>
</svg>
