<svg width="173" height="173" viewBox="0 0 173 173" fill="none" xmlns="http://www.w3.org/2000/svg">
<path d="M118.26 94.5H53.8313C54.81 116.269 59.6363 136.316 66.4875 150.998C70.335 159.266 74.4863 165.105 78.3338 168.682C82.1138 172.226 84.7125 172.8 86.0625 172.8C87.4125 172.8 90.0112 172.226 93.7912 168.682C97.6387 165.105 101.79 159.233 105.638 150.998C112.489 136.316 117.315 116.269 118.294 94.5H118.26ZM53.7975 78.3H118.226C117.281 56.5313 112.455 36.4838 105.604 21.8025C101.756 13.5675 97.605 7.695 93.7575 4.1175C89.9775 0.573749 87.3787 0 86.0287 0C84.6787 0 82.08 0.573749 78.3 4.1175C74.4525 7.695 70.3012 13.5675 66.4537 21.8025C59.6025 36.4838 54.7762 56.5313 53.7975 78.3ZM37.5975 78.3C38.7787 49.41 46.2375 22.5787 57.1388 4.96125C26.055 15.9637 3.1725 44.28 0 78.3H37.5975ZM0 94.5C3.1725 128.52 26.055 156.836 57.1388 167.839C46.2375 150.221 38.7787 123.39 37.5975 94.5H0ZM134.46 94.5C133.279 123.39 125.82 150.221 114.919 167.839C146.003 156.802 168.885 128.52 172.057 94.5H134.46ZM172.057 78.3C168.885 44.28 146.003 15.9637 114.919 4.96125C125.82 22.5787 133.279 49.41 134.46 78.3H172.057Z" fill="#F096AF"/>
</svg>
