<svg width="155" height="138" viewBox="0 0 155 138" fill="none" xmlns="http://www.w3.org/2000/svg">
<path d="M43.015 0C47.7735 0 51.618 3.84447 51.618 8.603V17.206H86.03C90.7885 17.206 94.633 21.0505 94.633 25.809C94.633 30.5675 90.7885 34.412 86.03 34.412H83.4491L81.1908 40.6223C76.7818 52.774 70.1413 63.8773 61.7803 73.4212C65.5979 75.7871 69.5768 77.884 73.717 79.7391L87.2667 85.7612L103.989 48.123C105.36 45.0044 108.452 43.015 111.839 43.015C115.226 43.015 118.318 45.0044 119.689 48.123L154.101 125.55C156.037 129.905 154.074 134.986 149.746 136.895C145.418 138.804 140.31 136.868 138.401 132.54L133.024 120.442H90.681L85.3041 132.54C83.3684 136.895 78.2873 138.831 73.9589 136.895C69.6305 134.96 67.668 129.878 69.6037 125.55L80.3036 101.489L66.7539 95.4664C60.5705 92.7242 54.6559 89.4443 49.064 85.6805C43.3376 90.3046 37.0736 94.3373 30.3793 97.6978L21.0505 102.322C16.8027 104.446 11.6409 102.725 9.51707 98.4775C7.3932 94.2297 9.1138 89.0679 13.3615 86.9441L22.6366 82.2931C27.0188 80.0886 31.1859 77.5345 35.111 74.6848C31.401 71.2705 27.906 67.5873 24.653 63.6891L21.9377 60.4092C18.8997 56.7529 19.3836 51.3223 23.0399 48.2843C26.6962 45.2464 32.1268 45.7303 35.1648 49.3866L37.907 52.6665C40.9987 56.4034 44.3861 59.8715 47.9617 63.0708C55.3549 54.8979 61.1888 45.3002 65.0333 34.7346L65.1677 34.412H8.62988C3.84447 34.412 0 30.5675 0 25.809C0 21.0505 3.84447 17.206 8.603 17.206H34.412V8.603C34.412 3.84447 38.2565 0 43.015 0ZM111.839 72.8029L98.3162 103.236H125.362L111.839 72.8029Z" fill="#BBA0F8"/>
</svg>
