<svg width="387" height="329" viewBox="0 0 387 329" fill="none" xmlns="http://www.w3.org/2000/svg">
<path d="M5.68605 226.348L188.686 326.856C191.684 328.503 195.316 328.503 198.314 326.856L381.314 226.348C384.512 224.592 386.5 221.232 386.5 217.583V48.9851C386.5 45.2999 384.473 41.9133 381.225 40.1719L308.681 1.27763C305.483 -0.436975 301.639 -0.306285 298.559 1.61252C280.548 12.8337 218.185 50.5744 193.5 51C168.753 51.4267 103.59 12.8944 85.0103 1.58362C81.8874 -0.317453 78.0159 -0.389376 74.8256 1.39635L5.61564 40.1365C2.45663 41.9048 0.5 45.2423 0.5 48.8625V217.583C0.5 221.232 2.48764 224.592 5.68605 226.348Z" fill="white"/>
</svg>
