<svg width="280" height="280" viewBox="0 0 280 280" fill="none" xmlns="http://www.w3.org/2000/svg">
<g clip-path="url(#clip0_2662_229)">
<rect width="280" height="280" rx="140" fill="white"/>
<ellipse cx="140" cy="255.5" rx="161" ry="115.5" fill="black"/>
<circle cx="93.5" cy="204.5" r="33.5" fill="#FFBB20"/>
<circle cx="93.0812" cy="204.081" r="23.0312" fill="black"/>
<circle cx="184.5" cy="204.5" r="33.5" fill="#FFBB20"/>
<circle cx="184.081" cy="204.081" r="23.0312" fill="black"/>
<path d="M229.532 94.4839C229.103 102.316 236.095 143.129 248.992 171.385L163.542 143.75C180.482 118.696 229.961 86.6515 229.532 94.4839Z" fill="black"/>
<path d="M218.096 151.999L190.642 142.968C198.121 128.31 204.303 121.795 219.396 113.28C218.888 128.401 216.322 136.638 218.096 151.999Z" fill="white"/>
<path d="M51.6876 97.4839C52.1164 105.316 45.1245 146.129 32.2279 174.385L117.677 146.75C100.738 121.696 51.2587 89.6515 51.6876 97.4839Z" fill="black"/>
<path d="M63.1233 154.999L90.5778 145.968C83.0992 131.31 76.917 124.795 61.8242 116.28C62.3316 131.401 64.8979 139.638 63.1233 154.999Z" fill="white"/>
<rect x="88" y="25" width="104" height="59" rx="29.5" fill="black"/>
<path d="M141.696 94.289C140.912 95.5416 139.088 95.5416 138.304 94.289L130.656 82.0606C129.823 80.7285 130.78 79 132.352 79H147.648C149.22 79 150.177 80.7285 149.344 82.0606L141.696 94.289Z" fill="black"/>
<rect x="121" y="238" width="37" height="22" rx="11" fill="white"/>
<path d="M94.6729 194.982C95.5433 192.216 99.4567 192.216 100.327 194.982V194.982C100.716 196.216 101.868 197.056 103.162 197.056V197.056C106.06 197.056 107.321 200.746 105.002 202.485L104.851 202.599C103.82 203.371 103.389 204.711 103.776 205.939L103.856 206.193C104.717 208.928 101.565 211.16 99.2705 209.439V209.439C98.2213 208.652 96.7787 208.652 95.7294 209.439V209.439C93.4353 211.16 90.2831 208.928 91.1441 206.193L91.2238 205.939C91.6106 204.711 91.1799 203.371 90.1493 202.599L89.9977 202.485C87.6788 200.746 88.9397 197.056 91.8383 197.056V197.056C93.1324 197.056 94.2843 196.216 94.6729 194.982V194.982Z" fill="white"/>
<path d="M188.673 194.982C189.543 192.216 193.457 192.216 194.327 194.982V194.982C194.716 196.216 195.868 197.056 197.162 197.056V197.056C200.06 197.056 201.321 200.746 199.002 202.485L198.851 202.599C197.82 203.371 197.389 204.711 197.776 205.939L197.856 206.193C198.717 208.928 195.565 211.16 193.271 209.439V209.439C192.221 208.652 190.779 208.652 189.729 209.439V209.439C187.435 211.16 184.283 208.928 185.144 206.193L185.224 205.939C185.611 204.711 185.18 203.371 184.149 202.599L183.998 202.485C181.679 200.746 182.94 197.056 185.838 197.056V197.056C187.132 197.056 188.284 196.216 188.673 194.982V194.982Z" fill="white"/>
<circle cx="80" cy="207" r="5" fill="white"/>
<circle cx="174" cy="207" r="5" fill="white"/>
<path d="M118.137 52.6378C118.08 52.0649 117.837 51.6198 117.406 51.3026C116.975 50.9853 116.39 50.8267 115.651 50.8267C115.15 50.8267 114.726 50.8977 114.38 51.0398C114.035 51.1771 113.769 51.3688 113.585 51.6151C113.405 51.8613 113.315 52.1406 113.315 52.4531C113.305 52.7135 113.36 52.9408 113.478 53.1349C113.601 53.3291 113.769 53.4972 113.982 53.6392C114.195 53.7765 114.442 53.8973 114.721 54.0014C115 54.1009 115.299 54.1861 115.616 54.2571L116.923 54.5696C117.557 54.7116 118.14 54.901 118.67 55.1378C119.2 55.3745 119.66 55.6657 120.048 56.0114C120.436 56.357 120.737 56.7642 120.95 57.233C121.168 57.7017 121.279 58.2391 121.284 58.8452C121.279 59.7353 121.052 60.5071 120.602 61.1605C120.157 61.8092 119.513 62.3134 118.67 62.6733C117.832 63.0284 116.821 63.206 115.637 63.206C114.463 63.206 113.44 63.026 112.569 62.6662C111.703 62.3063 111.026 61.7737 110.538 61.0682C110.055 60.358 109.802 59.4796 109.778 58.4332H112.754C112.787 58.9209 112.927 59.3281 113.173 59.6548C113.424 59.9768 113.758 60.2206 114.174 60.3864C114.596 60.5473 115.071 60.6278 115.602 60.6278C116.123 60.6278 116.575 60.5521 116.958 60.4006C117.347 60.2491 117.647 60.0384 117.86 59.7685C118.073 59.4986 118.18 59.1884 118.18 58.8381C118.18 58.5114 118.083 58.2367 117.889 58.0142C117.699 57.7917 117.42 57.6023 117.051 57.446C116.686 57.2898 116.239 57.1477 115.708 57.0199L114.124 56.6222C112.898 56.3239 111.93 55.8575 111.22 55.223C110.509 54.5885 110.157 53.7339 110.161 52.6591C110.157 51.7784 110.391 51.009 110.865 50.3509C111.343 49.6927 111.999 49.179 112.832 48.8097C113.665 48.4403 114.612 48.2557 115.673 48.2557C116.752 48.2557 117.695 48.4403 118.499 48.8097C119.309 49.179 119.939 49.6927 120.389 50.3509C120.838 51.009 121.07 51.7713 121.085 52.6378H118.137ZM126.406 63.206C125.71 63.206 125.09 63.0852 124.545 62.8438C124.001 62.5975 123.57 62.2353 123.253 61.7571C122.94 61.2741 122.784 60.6728 122.784 59.9531C122.784 59.3471 122.895 58.8381 123.118 58.4261C123.34 58.0142 123.643 57.6828 124.027 57.4318C124.41 57.1809 124.846 56.9915 125.334 56.8636C125.826 56.7358 126.342 56.6458 126.882 56.5938C127.516 56.5275 128.028 56.4659 128.416 56.4091C128.804 56.3475 129.086 56.2576 129.261 56.1392C129.436 56.0208 129.524 55.8456 129.524 55.6136V55.571C129.524 55.1212 129.382 54.7732 129.098 54.527C128.818 54.2808 128.421 54.1577 127.905 54.1577C127.36 54.1577 126.927 54.2784 126.605 54.5199C126.283 54.7566 126.07 55.0549 125.966 55.4148L123.167 55.1875C123.309 54.5246 123.589 53.9517 124.006 53.4688C124.422 52.9811 124.96 52.607 125.618 52.3466C126.281 52.0814 127.048 51.9489 127.919 51.9489C128.525 51.9489 129.105 52.0199 129.659 52.1619C130.218 52.304 130.712 52.5241 131.143 52.8224C131.579 53.1207 131.922 53.5043 132.173 53.973C132.424 54.437 132.55 54.9934 132.55 55.642V63H129.68V61.4872H129.595C129.42 61.8281 129.185 62.1288 128.892 62.3892C128.598 62.6449 128.246 62.8461 127.834 62.9929C127.422 63.1349 126.946 63.206 126.406 63.206ZM127.273 61.1179C127.718 61.1179 128.111 61.0303 128.452 60.8551C128.792 60.6752 129.06 60.4337 129.254 60.1307C129.448 59.8277 129.545 59.4844 129.545 59.1009V57.9432C129.451 58.0047 129.32 58.0616 129.155 58.1136C128.994 58.161 128.811 58.206 128.608 58.2486C128.404 58.2865 128.201 58.322 127.997 58.3551C127.793 58.3835 127.609 58.4096 127.443 58.4332C127.088 58.4853 126.778 58.5682 126.513 58.6818C126.247 58.7955 126.041 58.9493 125.895 59.1435C125.748 59.3329 125.675 59.5696 125.675 59.8537C125.675 60.2656 125.824 60.5805 126.122 60.7983C126.425 61.0114 126.809 61.1179 127.273 61.1179ZM136.374 67.0909C135.991 67.0909 135.631 67.0601 135.295 66.9986C134.963 66.9418 134.689 66.8684 134.471 66.7784L135.153 64.5199C135.508 64.6288 135.827 64.688 136.111 64.6974C136.4 64.7069 136.649 64.6406 136.857 64.4986C137.07 64.3565 137.243 64.1151 137.376 63.7741L137.553 63.3125L133.64 52.0909H136.822L139.08 60.1023H139.194L141.474 52.0909H144.677L140.437 64.179C140.233 64.7661 139.956 65.2775 139.606 65.7131C139.26 66.1534 138.822 66.492 138.292 66.7287C137.761 66.9702 137.122 67.0909 136.374 67.0909ZM150.911 63V48.4545H153.986V54.456H160.229V48.4545H163.297V63H160.229V56.9915H153.986V63H150.911ZM165.776 63V52.0909H168.801V63H165.776ZM167.296 50.6847C166.846 50.6847 166.46 50.5355 166.138 50.2372C165.821 49.9342 165.662 49.572 165.662 49.1506C165.662 48.7339 165.821 48.3764 166.138 48.0781C166.46 47.7751 166.846 47.6236 167.296 47.6236C167.745 47.6236 168.129 47.7751 168.446 48.0781C168.768 48.3764 168.929 48.7339 168.929 49.1506C168.929 49.572 168.768 49.9342 168.446 50.2372C168.129 50.5355 167.745 50.6847 167.296 50.6847Z" fill="white"/>
</g>
<defs>
<clipPath id="clip0_2662_229">
<rect width="280" height="280" rx="140" fill="white"/>
</clipPath>
</defs>
</svg>
