<svg width="305" height="220" viewBox="0 0 305 220" fill="none" xmlns="http://www.w3.org/2000/svg">
<mask id="mask0_2670_36" style="mask-type:alpha" maskUnits="userSpaceOnUse" x="0" y="0" width="305" height="220">
<ellipse cx="152.5" cy="110" rx="152.5" ry="110" fill="white"/>
</mask>
<g mask="url(#mask0_2670_36)">
<ellipse cx="153.84" cy="178.578" rx="153.84" ry="110.906" fill="black"/>
<ellipse cx="105.386" cy="135.324" rx="35.1288" ry="32.1628" fill="#EDB944"/>
<ellipse cx="105.387" cy="135.324" rx="25.5482" ry="23.3911" fill="black"/>
<ellipse cx="204.716" cy="135.324" rx="35.1288" ry="32.1628" fill="#EDB944"/>
<ellipse cx="204.716" cy="135.324" rx="25.5482" ry="23.3911" fill="black"/>
<ellipse cx="155.051" cy="168.588" rx="9.69069" ry="5.54531" fill="#D9D9D9"/>
<path d="M73.4505 20.4841C73.8793 28.3165 66.8874 69.1288 53.9908 97.3857L139.44 69.7503C122.501 44.6965 73.0216 12.6517 73.4505 20.4841Z" fill="black"/>
<path d="M84.8861 77.9994L112.341 68.9678C104.862 54.3095 98.6797 47.7953 83.587 39.2798C84.0943 54.4008 86.6607 62.6377 84.8861 77.9994Z" fill="white"/>
<path d="M233.274 20.4841C232.845 28.3165 239.837 69.1288 252.734 97.3857L167.284 69.7503C184.224 44.6965 233.703 12.6517 233.274 20.4841Z" fill="black"/>
<path d="M221.838 77.9994L194.384 68.9678C201.862 54.3095 208.045 47.7953 223.137 39.2798C222.63 54.4008 220.064 62.6377 221.838 77.9994Z" fill="white"/>
</g>
</svg>
