<svg width="155" height="155" viewBox="0 0 155 155" fill="none" xmlns="http://www.w3.org/2000/svg">
<path d="M11.0025 1.89535C8.47535 -0.631783 4.38893 -0.631783 1.88868 1.89535C-0.611566 4.42248 -0.63845 8.5089 1.8618 11.036L143.811 152.986C146.338 155.513 150.425 155.513 152.925 152.986C155.425 150.458 155.452 146.372 152.925 143.872L137.601 128.548V77.3867C144.806 76.8759 150.506 70.8538 150.506 63.5143C150.506 61.3636 149.995 59.2128 149.027 57.2772L133.783 26.7096C130.853 20.8757 124.912 17.1926 118.379 17.1926H36.4351C33.5585 17.1926 30.7894 17.9184 28.316 19.2358L11.0025 1.89535ZM86.4938 77.4136H120.422V111.342L86.4938 77.4136ZM94.6129 121.988L77.4069 104.782V107.524C77.4069 109.89 75.4712 111.826 73.1054 111.826H38.6934C36.3276 111.826 34.3919 109.89 34.3919 107.524V77.4136H50.0386L13.7985 41.1734L5.76003 57.2772C4.79219 59.2128 4.28139 61.3367 4.28139 63.5143C4.28139 70.8538 9.98088 76.8759 17.1859 77.3867V124.73C17.1859 131.854 22.966 137.635 30.0904 137.635H81.7084C88.8327 137.635 94.6129 131.854 94.6129 124.73V121.988Z" fill="#8BD899"/>
</svg>
