<svg width="1000" height="1005" viewBox="0 0 1000 1005" fill="none" xmlns="http://www.w3.org/2000/svg">
<path d="M866.188 339.5H901.548V303.98H927.947C934.774 303.98 940.854 302.433 946.188 299.34C948.91 297.706 951.326 295.766 953.438 293.521C983.315 357.623 1000 429.113 1000 504.5C1000 780.642 776.142 1004.5 500 1004.5C223.858 1004.5 0 780.642 0 504.5C0 423.069 19.4666 346.184 54 278.246V339.5H89.3604V299.98H135.44V274.7H89.3604V255.82H142.96V232.5H160.719V295.18C160.719 310.22 165.466 321.687 174.959 329.58C184.559 337.473 198.105 341.42 215.599 341.42C233.092 341.42 246.586 337.473 256.079 329.58C265.572 321.687 270.319 310.22 270.319 295.18V232.5H294V339.5H385.84V311.34H329.36V232.5H400.719V339.5H492.559V311.34H436.079V232.5H525.322C522.794 233.549 520.405 234.761 518.157 236.14C508.877 241.793 504.237 250.647 504.237 262.7C504.237 270.913 506.425 277.42 510.798 282.22C515.171 287.02 520.291 290.487 526.157 292.62C532.024 294.647 539.438 296.62 548.397 298.54C555.757 300.033 561.037 301.474 564.237 302.86C567.544 304.14 569.197 306.114 569.197 308.78C569.197 311.767 567.704 313.74 564.718 314.7C561.838 315.66 558.158 316.14 553.678 316.14C547.598 316.14 543.117 315.233 540.237 313.42C537.357 311.5 535.918 307.766 535.918 302.22H502.478C502.478 316.833 507.224 327.02 516.718 332.78C526.318 338.54 539.705 341.42 556.878 341.42C571.598 341.42 583.331 338.274 592.078 331.98C600.931 325.687 605.357 316.033 605.357 303.02C605.251 295.34 603.064 289.26 598.798 284.78C594.531 280.3 589.518 277.1 583.758 275.18C578.105 273.153 570.851 271.233 561.998 269.42C554.425 267.927 548.931 266.486 545.518 265.1C542.104 263.713 540.398 261.58 540.397 258.7C540.397 256.674 541.625 254.967 544.078 253.58C546.638 252.194 550.265 251.5 554.958 251.5C559.758 251.5 563.331 252.567 565.678 254.7C568.024 256.834 569.197 259.5 569.197 262.7V263.34H602.317V261.42C602.104 250.22 597.464 241.793 588.397 236.14C586.227 234.761 583.912 233.549 581.454 232.5H614.746V257.58H650.906V339.5H686.267V257.58H722.267V232.5H758.7C752.935 234.855 747.91 238.041 743.626 242.06C733.386 251.66 728.267 265.793 728.267 284.46C728.267 303.126 733.386 317.313 743.626 327.02C753.973 336.619 768.64 341.42 787.626 341.42C806.612 341.42 821.279 336.567 831.626 326.86C841.973 317.154 847.146 303.02 847.146 284.46C847.146 265.9 841.973 251.766 831.626 242.06C827.342 238.041 822.317 234.855 816.552 232.5H866.188V339.5Z" fill="black"/>
<path d="M234.959 294.7C234.959 300.78 233.252 305.687 229.839 309.42C226.532 313.153 221.732 315.02 215.438 315.02C209.145 315.019 204.346 313.207 201.039 309.58C197.732 305.847 196.079 300.887 196.079 294.7V232.5H234.959V294.7Z" fill="black"/>
<path d="M787.626 253.9C795.199 253.9 800.96 256.194 804.906 260.78C808.96 265.367 810.986 271.553 810.986 279.34V289.58C810.986 297.367 808.959 303.553 804.906 308.14C800.96 312.726 795.199 315.02 787.626 315.02C780.053 315.019 774.293 312.726 770.347 308.14C766.4 303.553 764.427 297.367 764.427 289.58V279.34C764.427 271.553 766.4 265.367 770.347 260.78C774.293 256.194 780.053 253.9 787.626 253.9Z" fill="black"/>
<path d="M916.107 255.5C919.841 255.5 922.614 256.46 924.428 258.38C926.348 260.193 927.308 262.807 927.308 266.22V267.5C927.308 270.807 926.348 273.42 924.428 275.34C922.614 277.26 919.841 278.22 916.107 278.22H901.548V255.5H916.107Z" fill="black"/>
<path d="M905.207 243.589C905.207 243.588 905.207 243.588 905.206 243.587C905.204 243.584 905.2 243.578 905.194 243.569C905.184 243.555 905.169 243.531 905.147 243.5H905.339C905.207 243.589 905.207 243.588 905.207 243.589ZM496.5 0C631.254 1.92264e-05 737.646 58.3114 810.056 116.188C846.285 145.147 874.141 174.097 892.958 195.829C902.371 206.7 909.535 215.781 914.367 222.174C916.783 225.371 918.617 227.897 919.858 229.641C920.413 230.42 920.85 231.043 921.167 231.5H896.327C891.829 225.653 885.648 217.94 877.839 208.921C859.64 187.903 832.652 159.853 797.569 131.812C727.354 75.6887 625.246 20 496.5 20C367.802 20 268.87 75.6503 201.852 131.673C168.353 159.676 142.937 187.686 125.915 208.674C118.063 218.356 112.01 226.531 107.782 232.5H83.6445C83.7245 232.373 83.836 232.196 83.9785 231.973C84.2778 231.503 84.7154 230.824 85.29 229.949C86.4395 228.199 88.1393 225.666 90.3848 222.463C94.875 216.057 101.552 206.963 110.382 196.076C128.032 174.314 154.335 145.324 189.023 116.327C258.38 58.3497 361.698 -1.88215e-05 496.5 0Z" fill="black"/>
</svg>
