<svg width="1198" height="910" viewBox="0 0 1198 910" fill="none" xmlns="http://www.w3.org/2000/svg">
<path d="M238.347 899.995C238.347 899.995 139.904 896.106 76.5948 833.293C13.2854 770.481 9.99072 671.304 9.99072 671.304V238.696C9.99072 238.696 14.1823 139.648 76.5948 76.7069C139.007 13.7656 238.347 10.0054 238.347 10.0054H672.225C672.225 10.0054 771.121 13.1015 833.978 76.7069C896.834 140.312 900.582 238.696 900.582 238.696V631.283L1172.71 899.995H238.347Z" fill="white" stroke="#00427A" stroke-width="19.9958"/>
<path d="M505.097 800.895V638.906H550.111C602.915 638.906 609.966 636.065 621.618 620.766C633.055 605.75 638.185 596.227 638.305 551.664C638.366 528.837 638.305 505.502 638.305 505.502L919.31 800.895H505.097Z" fill="#00A796"/>
<path d="M201.255 792.927C159.528 779.417 128.541 748.566 114.372 706.426C109.032 690.546 108.387 685.545 109.278 604.602C109.651 570.751 110.079 504.455 109.278 505.503H271.031V550.606C271.031 599.225 272.941 605.351 287.179 620.71C299.728 634.248 310.783 638.906 354.636 638.906H404.239V800.895H308.456C226.253 800.895 213.558 796.911 201.255 792.927ZM109.278 350.713C109.278 264.028 109.615 221.098 113.968 205.663C125.627 164.322 156.253 131.584 197.559 116.308C211.909 111.002 217.447 109.105 307.187 109.105H404.239V271.094H357.048C307.795 271.094 302.001 273.071 287.255 287.884C273.036 302.168 273.102 309.251 271.031 358.883V404.498H109.278V350.713ZM638.305 404.498C638.305 404.498 638.426 381.276 638.305 352.816C638.106 305.987 629.22 297.409 620.1 287.839C610.98 278.269 607.421 271.285 556.477 271.094C538.584 271.028 505.097 271.094 505.097 271.094V109.105H585.804C632.354 109.105 676.38 110.31 686.662 111.865C712.113 115.714 738.313 128.774 756.573 146.711C774.069 163.899 791.052 196.228 794.883 219.639C796.256 228.024 800.085 258.32 800.057 286.976C800.008 339.446 800.057 404.498 800.057 404.498H638.305Z" fill="#00427A"/>
</svg>
