<svg width="187" height="172" viewBox="0 0 187 172" fill="none" xmlns="http://www.w3.org/2000/svg">
<path d="M73.0469 17.2H113.953C115.56 17.2 116.875 18.49 116.875 20.0667V34.4H70.125V20.0667C70.125 18.49 71.4398 17.2 73.0469 17.2ZM52.5938 20.0667V172H134.406V20.0667C134.406 8.99417 125.239 0 113.953 0H73.0469C61.7611 0 52.5938 8.99417 52.5938 20.0667ZM151.938 34.4V172H163.625C176.518 172 187 161.716 187 149.067V57.3333C187 44.6842 176.518 34.4 163.625 34.4H151.938ZM35.0625 172V34.4H23.375C10.4822 34.4 0 44.6842 0 57.3333V149.067C0 161.716 10.4822 172 23.375 172H35.0625Z" fill="#90BBF9"/>
</svg>
